<svg width="205" height="35" viewBox="0 0 205 35" fill="none" xmlns="http://www.w3.org/2000/svg">
<path d="M76.5697 30.35C81.5947 30.35 85.6697 26.4 85.6697 21.25C85.6697 16.1 81.5947 12.15 76.5697 12.15C71.5447 12.15 67.4697 16.1 67.4697 21.25C67.4697 26.4 71.5447 30.35 76.5697 30.35ZM76.5697 26.45C73.7197 26.45 71.4697 24.375 71.4697 21.25C71.4697 18.125 73.7197 16.05 76.5697 16.05C79.4197 16.05 81.6697 18.125 81.6697 21.25C81.6697 24.375 79.4197 26.45 76.5697 26.45ZM91.2248 21.15C91.2248 20.7 91.6248 20.45 92.2748 20.45C93.0998 20.45 93.5998 20.9 93.9498 21.55L97.1498 19.825C96.0998 18.05 94.2998 17.15 92.2748 17.15C89.6748 17.15 87.3748 18.525 87.3748 21.25C87.3748 25.575 93.5248 24.85 93.5248 26.225C93.5248 26.725 93.0748 27 92.1748 27C91.0748 27 90.3748 26.475 90.0498 25.525L86.7998 27.375C87.7748 29.4 89.6748 30.35 92.1748 30.35C94.8748 30.35 97.3748 29.125 97.3748 26.25C97.3748 21.625 91.2248 22.575 91.2248 21.15ZM105.125 30.35C108.8 30.35 111.75 27.475 111.75 23.75C111.75 20.025 108.8 17.15 105.125 17.15C101.45 17.15 98.5 20.025 98.5 23.75C98.5 27.475 101.45 30.35 105.125 30.35ZM105.125 26.7C103.5 26.7 102.25 25.525 102.25 23.75C102.25 21.975 103.5 20.8 105.125 20.8C106.75 20.8 108 21.975 108 23.75C108 25.525 106.75 26.7 105.125 26.7ZM127.871 17.15C126.096 17.15 124.946 17.8 124.246 18.8C123.546 17.75 122.446 17.15 120.971 17.15C119.296 17.15 118.196 17.8 117.621 18.65V17.5H113.871V30H117.621V22.95C117.621 21.475 118.321 20.6 119.571 20.6C120.771 20.6 121.371 21.4 121.371 22.65V30H125.121V22.95C125.121 21.475 125.821 20.6 127.071 20.6C128.271 20.6 128.871 21.4 128.871 22.65V30H132.621V22.325C132.621 19.2 130.746 17.15 127.871 17.15ZM148.69 17.5L146.89 24.2L144.94 17.5H141.44L139.49 24.2L137.69 17.5H133.69L137.69 30H141.19L143.19 23.325L145.19 30H148.69L152.69 17.5H148.69ZM162.765 17.5V18.675C161.94 17.725 160.715 17.15 159.04 17.15C155.765 17.15 153.065 20.025 153.065 23.75C153.065 27.475 155.765 30.35 159.04 30.35C160.715 30.35 161.94 29.775 162.765 28.825V30H166.515V17.5H162.765ZM159.79 26.8C158.065 26.8 156.815 25.625 156.815 23.75C156.815 21.875 158.065 20.7 159.79 20.7C161.515 20.7 162.765 21.875 162.765 23.75C162.765 25.625 161.515 26.8 159.79 26.8ZM173.017 19.725V17.5H169.267V30H173.017V24.35C173.017 21.875 175.217 21.25 176.767 21.5V17.25C175.192 17.25 173.517 18.05 173.017 19.725ZM181.503 25.25H190.378C190.478 24.775 190.528 24.275 190.528 23.75C190.528 19.975 187.828 17.15 184.178 17.15C180.228 17.15 177.528 20.025 177.528 23.75C177.528 27.475 180.178 30.35 184.453 30.35C186.828 30.35 188.678 29.475 189.903 27.775L186.903 26.05C186.403 26.6 185.528 27 184.503 27C183.128 27 181.978 26.55 181.503 25.25ZM181.428 22.45C181.778 21.175 182.728 20.475 184.153 20.475C185.278 20.475 186.403 21 186.803 22.45H181.428Z" fill="white"/>
<path d="M41.6613 10.3441C40.3155 10.3441 39.027 10.6275 37.8244 11.081C36.45 4.73279 31.2102 0 24.9395 0C17.7239 0 11.8541 6.2915 11.711 14.085C11.0524 13.9433 10.3938 13.8866 9.73528 13.8866C4.35224 13.8866 0 18.5911 0 24.4291C0 29.1903 2.92058 33.2429 6.92923 34.5466C7.73096 34.83 8.58995 35 9.47758 35H42.2339C43.2361 35 44.181 34.8016 45.0686 34.4332C49.6499 32.8745 53 28.1984 53 22.6721C53 15.8704 47.9319 10.3441 41.6613 10.3441ZM42.6921 32.2227C42.0908 32.4494 41.5181 32.5628 41.5181 32.5628C41.1172 32.6478 40.6877 32.6761 40.2582 32.6761H12.3123C11.94 32.6761 11.5678 32.6478 11.1956 32.5911C11.1956 32.5911 10.6802 32.5061 10.1361 32.336C6.27067 31.0607 4.69584 28.4818 4.69584 28.4818C3.03512 25.7045 3.63641 22.7571 3.69368 22.417C4.26634 19.7814 6.32793 16.8057 9.24851 16.4939C10.4511 16.3522 11.4533 16.7206 12.0546 17.004C12.3123 17.0891 13.2285 17.3725 14.0303 16.8623C14.4311 16.6073 14.6602 16.2105 14.8892 15.6437C15.4619 14.1984 15.4046 13.0081 15.4619 12.1862C15.6051 10.1457 16.55 8.64372 16.9795 7.96356C18.6975 5.24291 21.7326 4.39271 22.7061 4.19433C26.6289 3.31579 29.7212 5.27126 30.3512 5.69636C34.3312 8.36032 34.9611 12.8664 35.047 13.5182C35.1329 14.085 35.5051 14.5668 35.9919 14.7368C36.7364 15.0202 37.3377 14.5668 37.3949 14.5385C38.1394 14.17 39.5138 13.6032 41.2604 13.6316C45.1259 13.6883 47.5024 16.4939 47.9033 16.9757C48.6191 17.8543 50.0508 19.9231 50.0794 22.8988C50.108 25.8462 48.705 27.8583 48.3042 28.4251C48.3328 28.3684 46.6434 30.7206 42.6921 32.2227Z" fill="url(#paint0_linear)"/>
<path d="M32.5845 23.7207L23.7369 12.8948C23.1356 12.1579 22.0475 12.0446 21.3031 12.6397C20.5586 13.2348 20.4441 14.3118 21.0454 15.0486L24.8536 19.6964L21.1313 24.4008C20.5586 25.1377 20.6731 26.2429 21.4462 26.8097C22.1907 27.3765 23.3074 27.2632 23.8801 26.498L27.087 22.417L29.893 25.8462C30.4943 26.583 31.5824 26.6964 32.3268 26.1012C33.0713 25.5344 33.1858 24.4575 32.5845 23.7207Z" fill="url(#paint1_linear)"/>
<defs>
<linearGradient id="paint0_linear" x1="58.8386" y1="0.755037" x2="-1.96066" y2="41.0291" gradientUnits="userSpaceOnUse">
<stop offset="1.06556e-08" stop-color="#0F9BE8"/>
<stop offset="1" stop-color="#6924FF"/>
</linearGradient>
<linearGradient id="paint1_linear" x1="20.6605" y1="19.7109" x2="32.9661" y2="19.7109" gradientUnits="userSpaceOnUse">
<stop offset="1.06556e-08" stop-color="#0F9BE8"/>
<stop offset="1" stop-color="#6924FF"/>
</linearGradient>
</defs>
</svg>
